# xmcd
#
# Track frame offsets:
# 150
# 19504
# 36129
# 56882
# 72692
# 91120
# 111242
# 131533
# 151734
# 167176
#
# Disc length: 2481 seconds
#
#
# Revision: 0
# Processed by: cddbd v1.5.2PL0 Copyright (c) Steve Scherf et al.
# Submitted via: FreeRIP 2.60 
#
DISCID=8109af0a
DTITLE=Ted Poley - Collateral damage
DYEAR=2006
DGENRE=Rock
TTITLE0=Yeah, you want it
TTITLE1=Breathing doll
TTITLE2=Curfain call
TTITLE3=Endgame
TTITLE4=Maybe
TTITLE5=Good enough
TTITLE6=Hero falling
TTITLE7=Let go
TTITLE8=(Heads up!) Look out below!
TTITLE9=Rise
EXTD=
EXTT0=
EXTT1=
EXTT2=
EXTT3=
EXTT4=
EXTT5=
EXTT6=
EXTT7=
EXTT8=
EXTT9=
PLAYORDER=
